<svg width="18" height="15" viewBox="0 0 18 15" fill="none" xmlns="http://www.w3.org/2000/svg">
<path id="Vector" d="M1.05 15C0.75 15 0.5 14.9167 0.3 14.75C0.0999999 14.5833 0 14.375 0 14.125V10.75C0 10.5556 0.0749999 10.3853 0.225 10.2392C0.375 10.0936 0.566667 10 0.8 9.95833L4.25 9.375C4.48333 9.34722 4.721 9.36444 4.963 9.42667C5.20433 9.48944 5.4 9.58333 5.55 9.70833L7.9 11.6667C9.16667 11.0278 10.325 10.2708 11.375 9.39583C12.425 8.52083 13.3 7.58333 14 6.58333L11.6 4.54167C11.45 4.41667 11.354 4.27417 11.312 4.11417C11.2707 3.95472 11.2667 3.77778 11.3 3.58333L11.95 0.666667C11.9833 0.472222 12.0917 0.3125 12.275 0.1875C12.4583 0.0624999 12.6667 0 12.9 0H16.95C17.25 0 17.5 0.0833333 17.7 0.25C17.9 0.416667 18 0.625 18 0.875C18 2.66667 17.5207 4.41306 16.562 6.11417C15.604 7.81583 14.3373 9.32278 12.762 10.635C11.1873 11.9478 9.37933 13.0033 7.338 13.8017C5.296 14.6006 3.2 15 1.05 15Z" fill="#6C6C6C"/>
</svg>
