<svg width="14" height="16" viewBox="0 0 14 16" fill="none" xmlns="http://www.w3.org/2000/svg">
<path id="Vector" d="M12.3077 0H1.23077C0.904349 0 0.591298 0.12967 0.360484 0.360484C0.12967 0.591298 0 0.904349 0 1.23077V14.7692C0 15.0957 0.12967 15.4087 0.360484 15.6395C0.591298 15.8703 0.904349 16 1.23077 16H12.3077C12.6341 16 12.9472 15.8703 13.178 15.6395C13.4088 15.4087 13.5385 15.0957 13.5385 14.7692V1.23077C13.5385 0.904349 13.4088 0.591298 13.178 0.360484C12.9472 0.12967 12.6341 0 12.3077 0ZM4.30769 1.84615H9.23077C9.39398 1.84615 9.55051 1.91099 9.66591 2.0264C9.78132 2.1418 9.84616 2.29833 9.84616 2.46154C9.84616 2.62475 9.78132 2.78127 9.66591 2.89668C9.55051 3.01209 9.39398 3.07692 9.23077 3.07692H4.30769C4.14448 3.07692 3.98796 3.01209 3.87255 2.89668C3.75714 2.78127 3.69231 2.62475 3.69231 2.46154C3.69231 2.29833 3.75714 2.1418 3.87255 2.0264C3.98796 1.91099 4.14448 1.84615 4.30769 1.84615ZM10.8315 13.4154C10.7669 13.464 10.6932 13.4994 10.6149 13.5195C10.5365 13.5396 10.455 13.5441 10.3749 13.5327C10.2948 13.5212 10.2177 13.4941 10.1481 13.4529C10.0785 13.4116 10.0177 13.3571 9.96923 13.2923C9.59665 12.7955 9.11351 12.3923 8.55809 12.1146C8.00267 11.8369 7.39021 11.6923 6.76923 11.6923C6.14825 11.6923 5.5358 11.8369 4.98038 12.1146C4.42496 12.3923 3.94182 12.7955 3.56923 13.2923C3.52074 13.357 3.46 13.4114 3.39046 13.4526C3.32092 13.4938 3.24395 13.5208 3.16395 13.5323C3.08395 13.5437 3.00248 13.5393 2.9242 13.5192C2.84591 13.4992 2.77234 13.4639 2.70769 13.4154C2.64304 13.3669 2.58857 13.3061 2.5474 13.2366C2.50623 13.1671 2.47915 13.0901 2.46772 13.0101C2.4563 12.9301 2.46074 12.8486 2.48079 12.7704C2.50085 12.6921 2.53613 12.6185 2.58462 12.5538C3.12953 11.8233 3.85617 11.2481 4.69231 10.8854C4.23409 10.467 3.91305 9.91992 3.77133 9.31584C3.62962 8.71177 3.67384 8.07897 3.8982 7.50048C4.12255 6.92199 4.51656 6.42484 5.02852 6.07429C5.54047 5.72373 6.14645 5.53614 6.76692 5.53614C7.3874 5.53614 7.99337 5.72373 8.50533 6.07429C9.01728 6.42484 9.41129 6.92199 9.63565 7.50048C9.86001 8.07897 9.90423 8.71177 9.76252 9.31584C9.6208 9.91992 9.29976 10.467 8.84154 10.8854C9.67936 11.2474 10.4077 11.8226 10.9538 12.5538C11.0519 12.6843 11.094 12.8484 11.0711 13.0099C11.0482 13.1715 10.962 13.3173 10.8315 13.4154ZM8.61539 8.61539C8.61539 8.98052 8.50711 9.33745 8.30425 9.64105C8.1014 9.94465 7.81307 10.1813 7.47573 10.321C7.13838 10.4607 6.76718 10.4973 6.40907 10.4261C6.05095 10.3548 5.72199 10.179 5.4638 9.92081C5.20561 9.66262 5.02979 9.33367 4.95855 8.97555C4.88732 8.61743 4.92388 8.24623 5.06361 7.90889C5.20334 7.57155 5.43997 7.28322 5.74356 7.08036C6.04716 6.87751 6.4041 6.76923 6.76923 6.76923C7.25886 6.76923 7.72844 6.96374 8.07466 7.30996C8.42088 7.65618 8.61539 8.12575 8.61539 8.61539Z" fill="#6C6C6C"/>
</svg>
